<svg xmlns="http://www.w3.org/2000/svg" viewBox="0 0 110 81">
  <g fill="none" fill-rule="evenodd">
    <path fill="#242021" d="M84.6 46.673a3.126 3.126 0 0 1-.874.992c-.359.269-.766.465-1.223.589a5.124 5.124 0 0 1-2.732 0 3.591 3.591 0 0 1-1.222-.59 3.146 3.146 0 0 1-.873-.99c-.222-.392-.333-.867-.333-1.423 0-.558.111-1.032.333-1.425.223-.392.507-.717.857-.976.35-.258.751-.448 1.208-.573a5.232 5.232 0 0 1 1.381-.185c.466 0 .931.061 1.398.185a3.63 3.63 0 0 1 1.223.573c.35.259.635.584.857.976.222.393.334.867.334 1.425 0 .556-.112 1.031-.334 1.422zM78.422 34.77c.169-.32.398-.579.683-.774.286-.197.605-.346.952-.448a3.696 3.696 0 0 1 2.13 0c.349.102.666.251.952.448.286.195.519.453.7.774.18.32.269.697.269 1.13 0 .413-.086.78-.254 1.1-.17.32-.397.587-.684.805a3.15 3.15 0 0 1-.952.494 3.563 3.563 0 0 1-2.176 0 2.95 2.95 0 0 1-.953-.494 2.49 2.49 0 0 1-.667-.805 2.321 2.321 0 0 1-.253-1.1c0-.433.084-.81.253-1.13zm-8.766 11.782c-.361.64-.853 1.11-1.477 1.408-.626.3-1.287.45-1.985.45-.996 0-1.859-.28-2.589-.837-.73-.557-1.235-1.33-1.51-2.321h11.188c-.002.062-.006.122-.006.185 0 .383.042.753.111 1.115h-3.732zm-5.972-6.86c.72-.546 1.556-.82 2.51-.82 1.016 0 1.89.274 2.62.82.73.548 1.223 1.286 1.476 2.214h-8.13c.296-.928.804-1.666 1.524-2.213zm-5.177.714a8.078 8.078 0 0 0-.666 3.224 4.288 4.288 0 0 0-.749-.562c-.609-.36-1.342-.65-2.195-.867a33.036 33.036 0 0 0-2.807-.573c-1.015-.164-1.81-.34-2.382-.526-.572-.185-.857-.484-.857-.898 0-.289.21-.572.635-.853.424-.277 1.123-.416 2.097-.416.783 0 1.402.129 1.858.387.455.258.747.573.873.944h4.261c-.022.048-.047.092-.068.14zm-4.494 7.524c-.561.237-1.266.356-2.112.356-.318 0-.653-.031-1.001-.092a3.788 3.788 0 0 1-1-.326 4.08 4.08 0 0 1-.875-.573 2.285 2.285 0 0 1-.619-.866h-3.565a9.6 9.6 0 0 0 .098-1.36V42.06c.086.182.187.354.307.512a4.89 4.89 0 0 0 1.667 1.378 8.949 8.949 0 0 0 2.208.789c.794.176 1.561.315 2.302.418.721.104 1.303.211 1.748.325.444.115.794.233 1.049.357.253.124.422.268.507.432.085.167.128.363.128.59 0 .475-.281.83-.842 1.068zm31.778-7.881a5.891 5.891 0 0 0 1.684-1.92c.402-.743.604-1.568.604-2.477a5.16 5.16 0 0 0-.525-2.307 5.513 5.513 0 0 0-1.46-1.842 6.942 6.942 0 0 0-2.209-1.208 8.52 8.52 0 0 0-2.763-.434c-.995 0-1.917.145-2.764.434-.847.29-1.578.691-2.19 1.208a5.591 5.591 0 0 0-1.447 1.842 5.184 5.184 0 0 0-.522 2.307c0 .909.2 1.74.602 2.493a5.801 5.801 0 0 0 1.683 1.935 6.61 6.61 0 0 0-2.14 1.964 8.514 8.514 0 0 0-.241-1.005c-.382-1.238-.953-2.285-1.715-3.142a7.456 7.456 0 0 0-2.748-1.95 8.833 8.833 0 0 0-3.415-.666 8.02 8.02 0 0 0-3.24.665 8.7 8.7 0 0 0-2.667 1.796 8.4 8.4 0 0 0-1.7 2.437 5.384 5.384 0 0 0-.77-1.957 5.628 5.628 0 0 0-1.529-1.58 7.28 7.28 0 0 0-2.133-1.004 9.11 9.11 0 0 0-2.603-.357c-1.187 0-2.219.15-3.097.449-.879.3-1.605.687-2.176 1.16-.572.476-1.001 1.022-1.287 1.643-.032.069-.055.14-.084.208v-2.993h-4.193v9.366c0 .23-.032.52-.095.873-.063.352-.2.7-.413 1.043-.211.342-.519.632-.922.87-.402.24-.942.359-1.62.359h-.133c-.678 0-1.218-.12-1.619-.359-.403-.238-.71-.528-.922-.87a2.985 2.985 0 0 1-.412-1.043 5.069 5.069 0 0 1-.097-.873v-9.366h-3.396v-.003h-2.955c0-1.114.265-1.889.794-2.322.53-.434 1.303-.609 2.32-.527v-3.84c-1.165-.123-2.198-.04-3.098.25-.9.288-1.662.737-2.288 1.345a5.842 5.842 0 0 0-1.412 2.23 8.898 8.898 0 0 0-.509 2.864H22v3.624h1.97v12.261h4.192V39.368h2.159v5.7c0 1.053.15 2.01.46 2.865.132.36.39.837.395.846.35.662.832 1.23 1.447 1.704.616.475 1.353.847 2.207 1.115.855.268 1.79.402 2.802.402a9.703 9.703 0 0 0 2.802-.402c1.983-.594 3.236-1.595 4.044-3.665.016-.042.026-.087.04-.13.13.332.284.65.474.946a6.258 6.258 0 0 0 1.668 1.75c.677.485 1.46.857 2.35 1.114.89.258 1.853.387 2.89.387 1.037 0 1.995-.134 2.87-.402s1.629-.64 2.26-1.115a5.24 5.24 0 0 0 1.482-1.703 4.46 4.46 0 0 0 .404-1.05c.385.68.85 1.296 1.402 1.84a8.465 8.465 0 0 0 2.667 1.78 8.166 8.166 0 0 0 3.24.65c2.054 0 3.765-.5 5.13-1.501a7.34 7.34 0 0 0 2.358-2.848c.054.13.103.26.167.387a6.503 6.503 0 0 0 1.652 2.09c.698.587 1.524 1.046 2.477 1.377.953.33 1.99.495 3.113.495s2.165-.164 3.13-.495c.962-.33 1.793-.79 2.493-1.378a6.507 6.507 0 0 0 1.65-2.09 5.745 5.745 0 0 0 .605-2.6c0-1.177-.282-2.225-.842-3.144-.561-.919-1.35-1.666-2.367-2.245z"></path>
  </g>
</svg>